<?xml version="1.0" encoding="UTF-8" standalone="no"?><svg xmlns="http://www.w3.org/2000/svg" xmlns:xlink="http://www.w3.org/1999/xlink" contentScriptType="text/ecmascript" fill="#000000" width="954" zoomAndPan="magnify" contentStyleType="text/css" viewBox="62.9 121.9 954.2 836.2" height="836" data-name="Layer 1" preserveAspectRatio="xMidYMid meet" version="1"><g id="change1_1"><path fill="#232320" d="M816.75,958.06c-47.8,1.64-39.67-72-136.81-108.32-41.82-15.64-74.44-46.61-92.6-88.29-53.71,25.28-109.29,40.28-163.98,23.7-55.94-16.96-97.91-59.41-102.27-117.4-53.75,2.2-106.19,1.4-153.32-24.01-96.48-52.01-127.97-166.55-87.89-266.14,22.25-55.29,61.34-97.93,122.23-109.56,42.18-89.91,139.49-134.57,237.14-112.86,66.11-42.98,143.99-46.77,206.59,3.08,88.11-16.9,169.31,20.27,216.01,93.41,68.1,21.53,110.76,77.44,113.44,149.96,57.12,71.11,57.2,171.08-9,238.65,7.08,70.19-31.38,132.46-95.73,168.02-2.6,34.73,55.74,117.96,11.89,129.14-22.38,5.7-42.1,19.8-65.7,20.62ZM614.55,744.94c47.13,21.78,150.73,26.13,155.43-40.02,1.05-14.8,8.85-20.92,22.13-18.42,8.57,1.61,12.87,9.93,12.59,22.16-.8,36.05-28.35,61.61-60.67,75.48-28.61,12.28-57.52,7.78-91.17,7.25,45.07,42.42,80.88,29.01,124.43,83.96,11.54,14.56,21.65,32.74,37.77,43.92,10.39,7.2,39.2-3.4,44.8-13.98-2.88-48.62-55.88-99.13,1.1-131.79,40.18-23.03,67.14-62.32,71.05-109.61-33.42,5.22-65.06,2.02-92.6-15.91-68.2-44.41-85.78,40.08-111.98,21.38-6.33-4.52-9.87-15.41-4.84-23,32.05-48.32,91.14-56.35,139.33-25.07,17.12,11.12,53.48,19.48,66.19.07,29.19-44.57-38.44-96-16.94-113.18,28.1-22.45,48.36,45.55,59.28,62.18,20.95-43.42,15-95.27-13.82-132.41-36.71-47.31-75.18,6.33-92.15-10.41-5.18-5.11-5.49-16.93.25-22.99,18.67-19.7,45.49-19.77,72.83-19.51-4.9-36.4-26.63-69.34-50.85-84.77-68.03-43.36-125.89,20.1-132.89-12.07-6.53-30.02,43.79-30.42,65.13-40.09-38.5-42.61-91.16-63.59-146.28-56.53,14.83,30.01,11.79,57.75,13.75,88.02.44,6.74,10.8,15.03,10.21,20.53-.55,5.14-2.23,18.47-11.71,17.91-84.18-4.99-61.22,68.07-84.36,72.04-5.16.89-16.58,1.36-18.22-6.62-9.39-45.57,20.3-84.63,67-96.28,2.5-26.69,5.97-61.07-11.42-85.35-35.17-49.11-103.29-58-156.46-30,22.55,14.72,75.88,74.65,41.93,85.36-29.34,9.25-18.09-44.69-79.41-63.26-76.31-23.11-159.13,1.59-203.05,74.16,31.65,6.04,54.32,24.3,78.53,42.35,20.05-2.3,77.6-8.15,75.23,22.44-2.61,33.67-44.31-10.25-79.38,24.71-37.91,37.79.83,73.16-28.43,80.91-33.37,8.84-30.71-75.42,3.83-106.92-28.34-25.82-64.28-32.43-100.18-23.33-45.03,11.42-96.73,73.77-67.29,125.19,9.52,16.63,27.14,30.21,54.03,28.26l3.22-38.06c.92-10.85,10.32-15.14,18.95-14.13,30.55,3.57-15.53,86.12,75.11,107,10.5,2.42,16.29,11.66,16.33,19.1.07,14.12-12.13,12.17-21.55,13.41-38.98,5.12-53.89-38.58-80.25-48.23-30.17-11.04-66.89-4.64-89.78-42.08-6.69,92.44,55.73,161.84,141.86,172.7,28.3,3.57,53.66,6.19,83.41.41,9.25-43.18,41.08-74.48,74.96-97.37-8.27-48.37-55.88-25-64.13-43.78-2.54-5.78-3.06-19.65,6.24-21.93,38.79-9.53,75.1,13.28,91.6,49.74l81.79-18.19c44.65-65.62,122.97-87.42,195.41-56.51,11.71,5,16.07,13.68,11.73,25.06-3.09,8.13-13.31,10.83-23.1,6.92-55.93-22.38-117.37-10.44-151.72,39.04-32.22,46.4-120.26,8.78-173.2,89.37-32.71,49.79-20.37,108.68,31.5,136.64,65.67,35.4,177.3,12.03,206.58-62.04,3.62-9.17,19.01-9.13,24.16-5.12,20.97,16.32-13.3,49.97-21.81,71.3Z"/></g><g id="change1_2"><path fill="#232320" d="M598.7,605.31c-27.42,63.93-146.41,93.84-144,51.38.66-11.6,11.24-15.51,22.55-15.29,110.08,2.08,80.07-106.68,125.16-75.07,25.97,18.21,63.34,21.57,84.14-4.63,7.3-9.2,15.1-15.06,26.71-9.31,8.61,4.27,11.78,17.21,3.75,27.8-28.61,37.73-74.59,42.12-118.3,25.12Z"/></g><g id="change1_3"><path fill="#232320" d="M791.05,548.8c-10.43,5.39-23.2-1.76-25.72-9.47-7.85-23.99,59.14-28.93,42.76-98.44-15.44-65.55-83.58-47.73-82.18-74.88,2.07-40.13,97.1-.21,114.09,59.39l8.27-.1c2.23-.03,3.71,1.81,4.89,2.67-15.94-11.76,13.16,81.91-62.11,120.83Z"/></g><g id="change1_4"><path fill="#232320" d="M447.72,456.73c-38.83-3.6,6.76-88.47,8.18-92.02,23.02-57.82-63.32-86.88-65.42-93.35-2.75-8.47-1.45-17.18,4.62-21.16,21.7-14.25,120.94,45.85,94.03,124.3-8.25,24.06-24.11,42.71-22.61,70.34.52,9.61-12.95,12.43-18.8,11.89Z"/></g></svg>